[Header]
FileType HTR
DataType HTRS
FileVersion 1
NumSegments 48
NumFrames 3
DataFrameRate 30
EulerRotationOrder ZYX
CalibrationUnits mm
RotationUnits Degrees
GlobalAxisofGravity Y
BoneLengthAxis Y
ScaleFactor 1.0
[SegmentNames&Hierarchy]
Wolf	GLOBAL
Becken	Wolf
Bauch	Becken
Bauch_001	Bauch
Brust	Bauch_001
Hals	Brust
Kopf_002	Hals
Kopf	Kopf_002
Unterkiefer	Kopf
Hals_fett	Unterkiefer
Maulunten	Unterkiefer
Mauloben	Kopf
MundW_L	Kopf
MundW_R	Kopf
Augen_con	Kopf
IK_Aug_R	Augen_con
IK_Aug_L	Augen_con
Aug_R	Kopf
aug_L	Kopf
Ohr_L	Kopf
Ohr_R	Kopf
Braun_O_L	Kopf
Braun_O_R	Kopf
aug_lied_O_L	Kopf
aug_lied_O_R	Kopf
aug_lied_U_L	Kopf
aug_lied_U_R	Kopf
Bauch_003	Brust
Schalterplatte_L	Bauch_003
Oberarm_L	Schalterplatte_L
Unterarm_L	Oberarm_L
Vorderpfote_L	Unterarm_L
Schalterplatte_R	Bauch_003
Oberarm_R	Schalterplatte_R
Unterarm_R	Oberarm_R
Vorderpfote_R	Unterarm_R
Schwanz	Becken
Schwanz_001	Schwanz
Schwanz_002	Schwanz_001
Schwanz_003	Schwanz_002
Oberschenkel_L	Becken
Unterschenkel_L	Oberschenkel_L
Pfote1_L	Unterschenkel_L
Pfote2_L	Pfote1_L
Oberschenkel_R	Becken
Unterschenkel_R	Oberschenkel_R
Pfote1_R	Unterschenkel_R
Pfote2_R	Pfote1_R
[BasePosition]
Wolf	0	0	0	0	0	0	1
Becken	0	0	0	0	0	0	1
Bauch	0	0	0	0	0	0	1
Bauch_001	0	0	0	0	0	0	1
Brust	0	0	0	0	0	0	1
Hals	0	0	0	0	0	0	1
Kopf_002	0	0	0	0	0	0	1
Kopf	0	0	0	0	0	0	1
Unterkiefer	0	0	0	0	0	0	1
Hals_fett	0	0	0	0	0	0	1
Maulunten	0	0	0	0	0	0	1
Mauloben	0	0	0	0	0	0	1
MundW_L	0	0	0	0	0	0	1
MundW_R	0	0	0	0	0	0	1
Augen_con	0	0	0	0	0	0	1
IK_Aug_R	0	0	0	0	0	0	1
IK_Aug_L	0	0	0	0	0	0	1
Aug_R	0	0	0	0	0	0	1
aug_L	0	0	0	0	0	0	1
Ohr_L	0	0	0	0	0	0	1
Ohr_R	0	0	0	0	0	0	1
Braun_O_L	0	0	0	0	0	0	1
Braun_O_R	0	0	0	0	0	0	1
aug_lied_O_L	0	0	0	0	0	0	1
aug_lied_O_R	0	0	0	0	0	0	1
aug_lied_U_L	0	0	0	0	0	0	1
aug_lied_U_R	0	0	0	0	0	0	1
Bauch_003	0	0	0	0	0	0	1
Schalterplatte_L	0	0	0	0	0	0	1
Oberarm_L	0	0	0	0	0	0	1
Unterarm_L	0	0	0	0	0	0	1
Vorderpfote_L	0	0	0	0	0	0	1
Schalterplatte_R	0	0	0	0	0	0	1
Oberarm_R	0	0	0	0	0	0	1
Unterarm_R	0	0	0	0	0	0	1
Vorderpfote_R	0	0	0	0	0	0	1
Schwanz	0	0	0	0	0	0	1
Schwanz_001	0	0	0	0	0	0	1
Schwanz_002	0	0	0	0	0	0	1
Schwanz_003	0	0	0	0	0	0	1
Oberschenkel_L	0	0	0	0	0	0	1
Unterschenkel_L	0	0	0	0	0	0	1
Pfote1_L	0	0	0	0	0	0	1
Pfote2_L	0	0	0	0	0	0	1
Oberschenkel_R	0	0	0	0	0	0	1
Unterschenkel_R	0	0	0	0	0	0	1
Pfote1_R	0	0	0	0	0	0	1
Pfote2_R	0	0	0	0	0	0	1
[Wolf]
13	0	0	0	-90	-0	0	1.0
14	0	0	0	-90	-0	0	1.0
15	0	0	0	-90	-0	0	1.0
[Becken]
13	0	-0.3593500257	0.5319640636	-1.91564709e-06	179.4300995	90	1.0
14	0	-0.276322037	0.5345680714	-1.91564709e-06	174.5985413	90	1.0
15	0	-0.2042960376	0.5469040275	-1.91564709e-06	169.30896	90	1.0
[Bauch]
13	1.001544237	7.68020243e-08	-0.4536337852	8.746882827e-07	-1.405080199	4.853698101e-07	1.0
14	1.008834124	7.68020243e-08	-0.4202127457	8.746882827e-07	5.477107048	4.853698101e-07	1.0
15	1.014768004	7.68020243e-08	-0.3918993771	8.746882827e-07	12.57074833	4.853698101e-07	1.0
[Bauch_001]
13	0.6280941367	4.020625255e-08	0.09954915196	1.051260369e-06	6.226313114	4.625552208e-08	1.0
14	0.6098227501	4.020625255e-08	0.2142576724	1.051260369e-06	9.737863541	4.625552208e-08	1.0
15	0.5905038714	4.020625255e-08	0.3113478124	1.051260369e-06	12.70663452	4.625552208e-08	1.0
[Brust]
13	1.071531653	8.38275227e-08	0.05943935737	-2.585561106e-06	14.94289017	-6.053789093e-06	1.0
14	1.076416731	8.38275227e-08	0.1278426945	-2.585561106e-06	17.46988678	-6.053789093e-06	1.0
15	1.082632422	8.38275227e-08	0.2160697877	-2.585561106e-06	20.73688316	-6.053789093e-06	1.0
[Hals]
13	1.506519437	9.550224433e-08	0.9184605479	-1.920878731e-06	26.68027115	-4.161266588e-06	1.0
14	1.477993488	9.550224433e-08	0.8989515305	-1.920878731e-06	24.53425026	-4.161266588e-06	1.0
15	1.441202402	9.550224433e-08	0.8737885952	-1.920878731e-06	21.76161957	-4.161266588e-06	1.0
[Kopf_002]
13	1.752594829	3.013231981e-05	0.2651812136	0.006653484888	-165.1497192	0.002557621803	1.0
14	1.752594829	3.013231981e-05	0.2651812136	0.006653484888	-165.1497192	0.002557621803	1.0
15	1.752594829	3.013231981e-05	0.2651812136	0.006653484888	-165.1497192	0.002557621803	1.0
[Kopf]
13	1.041004896	7.839815908e-08	-0.00134809874	0.07447201759	131.7209167	-0.02147964388	1.0
14	1.040504336	7.839815908e-08	-0.007627984509	0.07271262258	128.8475952	-0.0228337571	1.0
15	1.040003777	7.839815908e-08	-0.01561241411	0.07011821866	125.1302643	-0.02491285279	1.0
[Unterkiefer]
13	0.6370446682	0.004552738741	0.4060619473	5.41272068	-68.38880157	-3.093541861	1.0
14	0.6370446682	0.004552738741	0.4060619473	5.41272068	-68.38880157	-3.093541861	1.0
15	0.6370446682	0.004552738741	0.4060619473	5.41272068	-68.38880157	-3.093541861	1.0
[Hals_fett]
13	0.2998236716	0.007747383788	0.1206455454	-5.071650982	-59.35961151	5.585565567	1.0
14	0.2998236716	0.007747383788	0.1206455454	-5.071650982	-59.35961151	5.585565567	1.0
15	0.2998236716	0.007747383788	0.1206455454	-5.071650982	-59.35961151	5.585565567	1.0
[Maulunten]
13	0.08317924291	-0.007747320924	-0.1206462979	-3.322208881	38.97270966	-0.8718757033	1.0
14	0.08317924291	-0.007747320924	-0.1206462979	-3.322208881	38.97270966	-0.8718757033	1.0
15	0.08317924291	-0.007747320924	-0.1206462979	-3.322208881	38.97270966	-0.8718757033	1.0
[Mauloben]
13	0.9101490974	0.0004056780017	0.400369823	-0.103267692	-28.77768707	0.0354314521	1.0
14	0.9101490974	0.0004056780017	0.400369823	-0.103267692	-28.77768707	0.0354314521	1.0
15	0.9101490974	0.0004056780017	0.400369823	-0.103267692	-28.77768707	0.0354314521	1.0
[MundW_L]
13	0.6730612516	-0.3618556559	0.3751283288	-179.8370972	-17.94884682	24.71397018	1.0
14	0.6730612516	-0.3618556559	0.3751283288	-179.8370972	-17.94884682	24.71397018	1.0
15	0.6730612516	-0.3618556559	0.3751283288	-179.8370972	-17.94884682	24.71397018	1.0
[MundW_R]
13	0.6732413769	0.362703532	0.3739836514	179.665329	-18.0242691	-24.69084167	1.0
14	0.6732413769	0.362703532	0.3739836514	179.665329	-18.0242691	-24.69084167	1.0
15	0.6732413769	0.362703532	0.3739836514	179.665329	-18.0242691	-24.69084167	1.0
[Augen_con]
13	1.807373762	-0.0001604075951	0.1835815907	0.09822228551	157.1545258	0.02385941148	1.0
14	1.807373762	-0.0001604075951	0.1835815907	0.09822228551	157.1545258	0.02385941148	1.0
15	1.807373762	-0.0001604075951	0.1835815907	0.09822228551	157.1545258	0.02385941148	1.0
[IK_Aug_R]
13	0.3461297154	0.2943200171	3.136494797e-07	-0.4194768965	-4.963055134	165.6946411	1.0
14	0.3461297154	0.2943200171	3.136494797e-07	-0.4194768965	-4.963055134	165.6946411	1.0
15	0.3461297154	0.2943200171	3.136494797e-07	-0.4194768965	-4.963055134	165.6946411	1.0
[IK_Aug_L]
13	0.3461298645	-0.2943200171	3.034585916e-07	0.4194775522	-4.963055611	-165.6946411	1.0
14	0.3461298645	-0.2943200171	3.034585916e-07	0.4194775522	-4.963055611	-165.6946411	1.0
15	0.3461298645	-0.2943200171	3.034585916e-07	0.4194775522	-4.963055611	-165.6946411	1.0
[Aug_R]
13	1.035154939	0.220780611	-0.09605786204	176.004776	-17.29164886	12.85548782	1.0
14	1.035154939	0.220780611	-0.09605786204	176.004776	-17.29164886	12.85548782	1.0
15	1.035154939	0.220780611	-0.09605786204	176.004776	-17.29164886	12.85548782	1.0
[aug_L]
13	1.035047412	-0.2215989083	-0.09536846727	-176.1891174	-17.33176422	-12.83101749	1.0
14	1.035047412	-0.2215989083	-0.09536846727	-176.1891174	-17.33176422	-12.83101749	1.0
15	1.035047412	-0.2215989083	-0.09536846727	-176.1891174	-17.33176422	-12.83101749	1.0
[Ohr_L]
13	0.6407766938	-0.365999192	-0.6893325448	-24.34924316	53.07766342	-15.02013397	1.0
14	0.6407766938	-0.365999192	-0.6893325448	-24.34924316	53.07766342	-15.02013397	1.0
15	0.6407766938	-0.365999192	-0.6893325448	-24.34924316	53.07766342	-15.02013397	1.0
[Ohr_R]
13	0.6409586668	0.3634999394	-0.6904851198	24.05786133	53.12416458	14.75857353	1.0
14	0.6409586668	0.3634999394	-0.6904851198	24.05786133	53.12416458	14.75857353	1.0
15	0.6409586668	0.3634999394	-0.6904851198	24.05786133	53.12416458	14.75857353	1.0
[Braun_O_L]
13	0.9801893234	-0.3706049621	-0.3292511106	-143.317215	-34.69634628	52.39493942	1.0
14	0.9801893234	-0.3706049621	-0.3292511106	-143.317215	-34.69634628	52.39493942	1.0
15	0.9801893234	-0.3706049621	-0.3292511106	-143.317215	-34.69634628	52.39493942	1.0
[Braun_O_R]
13	0.9803637862	0.369074285	-0.3304226696	143.182663	-34.83971786	-52.3467598	1.0
14	0.9803637862	0.369074285	-0.3304226696	143.182663	-34.83971786	-52.3467598	1.0
15	0.9803637862	0.369074285	-0.3304226696	143.182663	-34.83971786	-52.3467598	1.0
[aug_lied_O_L]
13	1.038882613	-0.3271434009	-0.1608110666	-175.8613434	-20.15596771	60.31667709	1.0
14	1.038882613	-0.3271434009	-0.1608110666	-175.8613434	-20.15596771	60.31667709	1.0
15	1.038882613	-0.3271434009	-0.1608110666	-175.8613434	-20.15596771	60.31667709	1.0
[aug_lied_O_R]
13	1.039044976	0.326115787	-0.1618431509	175.7657928	-20.31323814	-60.31218338	1.0
14	1.039044976	0.326115787	-0.1618431509	175.7657928	-20.31323814	-60.31218338	1.0
15	1.039044976	0.326115787	-0.1618431509	175.7657928	-20.31323814	-60.31218338	1.0
[aug_lied_U_L]
13	1.021916747	-0.3312866092	-0.1338487417	-159.8099365	-28.7482872	60.17462158	1.0
14	1.021916747	-0.3312866092	-0.1338487417	-159.8099365	-28.7482872	60.17462158	1.0
15	1.021916747	-0.3312866092	-0.1338487417	-159.8099365	-28.7482872	60.17462158	1.0
[aug_lied_U_R]
13	1.022078514	0.3303526044	-0.1348845363	159.7071381	-28.90531921	-60.15359879	1.0
14	1.022078514	0.3303526044	-0.1348845363	159.7071381	-28.90531921	-60.15359879	1.0
15	1.022078514	0.3303526044	-0.1348845363	159.7071381	-28.90531921	-60.15359879	1.0
[Bauch_003]
13	1.276869178	9.640092458e-08	-0.6079563498	-3.938861937e-06	-137.6799469	1.017604518e-05	1.0
14	1.276869178	9.640092458e-08	-0.6079563498	-3.938861937e-06	-137.6799469	1.017604518e-05	1.0
15	1.276869178	9.640092458e-08	-0.6079563498	-3.938861937e-06	-137.6799469	1.017604518e-05	1.0
[Schalterplatte_L]
13	0.8925708532	-0.3820799291	2.05982893e-08	-112.8897781	69.50411987	-142.5521088	1.0
14	0.8925708532	-0.3820799291	2.05982893e-08	-117.0443726	64.83110046	-148.9126434	1.0
15	0.8925708532	-0.3820799291	2.05982893e-08	-116.4401703	62.68283463	-149.2837677	1.0
[Oberarm_L]
13	1.418637037	6.984918599e-08	2.142041922e-07	-136.0006256	-52.30778885	157.3673706	1.0
14	1.418637037	6.984918599e-08	2.142041922e-07	-140.1685486	-48.04097748	163.8048096	1.0
15	1.418637037	6.984918599e-08	2.142041922e-07	-139.8897858	-47.46658707	164.4115295	1.0
[Unterarm_L]
13	2.028227091	1.769512892e-07	2.468004823e-07	25.81515121	64.71488953	34.25414658	1.0
14	2.028227091	1.769512892e-07	2.468004823e-07	37.62889862	69.45896912	47.09812546	1.0
15	2.028227091	1.769512892e-07	2.468004823e-07	50.69373322	72.35862732	60.94165421	1.0
[Vorderpfote_L]
13	1.705947876	2.095475793e-07	-1.816079021e-07	-9.76461792	-33.59433365	13.73250771	1.0
14	1.705947876	2.095475793e-07	-1.816079021e-07	-11.63807392	-33.03420258	16.62600517	1.0
15	1.705947876	2.095475793e-07	-1.816079021e-07	-12.99445915	-30.07347107	18.96068573	1.0
[Schalterplatte_R]
13	0.892570734	0.3820800781	8.883210967e-08	59.40080261	77.90718842	95.7279892	1.0
14	0.892570734	0.3820800781	8.883210967e-08	99.02219391	76.86177063	137.5309601	1.0
15	0.892570734	0.3820800781	8.883210967e-08	116.0749512	72.04420471	156.2904816	1.0
[Oberarm_R]
13	1.418637633	1.862644972e-08	1.862644972e-08	111.8970108	-48.63085938	-133.236084	1.0
14	1.418637633	1.862644972e-08	1.862644972e-08	121.9316101	-42.76535034	-147.8232422	1.0
15	1.418637633	1.862644972e-08	1.862644972e-08	127.7151184	-36.69736481	-158.3029938	1.0
[Unterarm_R]
13	2.028232336	9.313225746e-08	-3.247987479e-07	-1.175896525	46.81829453	-2.065752983	1.0
14	2.028232336	9.313225746e-08	-3.247987479e-07	-2.902092457	52.41815948	-4.674729824	1.0
15	2.028232336	9.313225746e-08	-3.247987479e-07	-6.603878021	59.13555908	-9.470211983	1.0
[Vorderpfote_R]
13	1.705937147	1.11758709e-07	-3.015156835e-07	16.61832237	-45.06101227	-6.791901588	1.0
14	1.705937147	1.11758709e-07	-3.015156835e-07	18.50635147	-45.49091339	-9.427909851	1.0
15	1.705937147	1.11758709e-07	-3.015156835e-07	19.32588577	-41.38734818	-10.99129772	1.0
[Schwanz]
13	-0.1017840579	-7.265629876e-09	0.2543672919	1.746391773	-121.4313278	-2.815617561	1.0
14	-0.09918643534	-7.265629876e-09	0.2378527224	1.191467285	-128.3618011	-2.357250214	1.0
15	-0.09773076326	-7.265629876e-09	0.2169285119	0.7539520264	-135.7676697	-2.026954651	1.0
[Schwanz_001]
13	0.9104328156	6.635672634e-08	-8.707502275e-08	-0.2214657664	-11.76678658	-0.7996266484	1.0
14	0.9104328156	6.635672634e-08	-8.707502275e-08	-0.1242022663	-3.744509697	-0.7192957401	1.0
15	0.9104328156	6.635672634e-08	-8.707502275e-08	-0.02231308818	3.888914347	-0.6313935518	1.0
[Schwanz_002]
13	0.7855660915	6.082701276e-08	-2.382875941e-08	0.7362864017	-1.531383753	-0.7816327214	1.0
14	0.7855660915	6.082701276e-08	-2.382875941e-08	0.738627851	4.536646843	-0.702752471	1.0
15	0.7855660915	6.082701276e-08	-2.382875941e-08	0.7482097149	10.32658577	-0.6265186667	1.0
[Schwanz_003]
13	0.8350354433	5.987204332e-08	5.614651855e-08	8.880763289e-07	-11.60312271	-8.974389942e-08	1.0
14	0.8350354433	5.987204332e-08	5.614651855e-08	8.880763289e-07	-11.60312271	-8.974389942e-08	1.0
15	0.8350354433	5.987204332e-08	5.614651855e-08	8.880763289e-07	-11.60312271	-8.974389942e-08	1.0
[Oberschenkel_L]
13	0.3686088324	-0.5834400654	0.1033847108	12.31410313	-48.66830826	-6.249238014	1.0
14	0.2815742493	-0.5834400654	0.1650371253	12.58679295	-50.34088516	-6.608346939	1.0
15	0.169316411	-0.5834400654	0.2445532978	12.89104748	-52.01032639	-6.997881889	1.0
[Unterschenkel_L]
13	1.686439037	1.338776201e-07	-7.450580597e-08	-15.79201031	-41.69422913	23.50061035	1.0
14	1.686439037	1.338776201e-07	-7.450580597e-08	-11.55217648	-26.31362152	18.31058502	1.0
15	1.686439037	1.338776201e-07	-7.450580597e-08	-8.987218857	-13.59248352	15.11554718	1.0
[Pfote1_L]
13	1.190900326	9.313225746e-08	1.065200195e-07	1.222638726	46.2873764	-7.539175987	1.0
14	1.190900326	9.313225746e-08	1.065200195e-07	1.815507531	37.46401215	-6.56638813	1.0
15	1.190900326	9.313225746e-08	1.065200195e-07	2.466655254	27.49214935	-5.485394478	1.0
[Pfote2_L]
13	0.9876260161	9.313225746e-08	-5.820770088e-09	-0.2345114946	7.761960983	-3.281775951	1.0
14	0.9876260161	9.313225746e-08	-5.820770088e-09	0.2922310233	19.50182343	-3.619204521	1.0
15	0.9876260161	9.313225746e-08	-5.820770088e-09	0.2216829658	36.73515701	-4.463291645	1.0
[Oberschenkel_R]
13	0.4639625251	0.5836999416	0.1713011563	-25.61080933	-75.41516876	20.86257935	1.0
14	0.3769279718	0.5836999416	0.2329535931	-28.50404549	-77.17478943	23.84256363	1.0
15	0.2646703124	0.5836999416	0.3124707937	-27.23557091	-74.14595795	22.42807579	1.0
[Unterschenkel_R]
13	1.68644917	1.234002411e-07	9.313230187e-09	-176.0263977	-167.5727997	164.6951904	1.0
14	1.68644917	1.234002411e-07	9.313230187e-09	-172.4562378	-160.3535309	162.8571472	1.0
15	1.68644917	1.234002411e-07	9.313230187e-09	-160.4111328	-143.1446381	154.5441284	1.0
[Pfote1_R]
13	1.190900326	4.656610209e-09	5.355104804e-08	-2.361786127	35.88838577	5.758646965	1.0
14	1.190900326	4.656610209e-09	5.355104804e-08	-4.261666775	50.68621445	3.386031628	1.0
15	1.190900326	4.656610209e-09	5.355104804e-08	-5.947168827	61.07713699	1.382472754	1.0
[Pfote2_R]
13	0.9876259565	8.381903172e-08	1.071020961e-07	3.136374474	51.68212509	8.787464142	1.0
14	0.9876259565	8.381903172e-08	1.071020961e-07	-0.6195297837	51.81064987	5.462182999	1.0
15	0.9876259565	8.381903172e-08	1.071020961e-07	-11.90208054	54.64123535	-6.104287624	1.0
[EndOfFile]
